HIERARCHY
ROOT Hips
{
	OFFSET 0.000000 0.000000 0.000000
	CHANNELS 6 Xposition Yposition Zposition Zrotation Yrotation Xrotation 
	JOINT LHipJoint
	{
		OFFSET 0.000000 0.000000 0.000000
		CHANNELS 3 Zrotation Yrotation Xrotation
		JOINT LeftUpLeg
		{
			OFFSET 1.363060 -1.794630 0.839290
			CHANNELS 3 Zrotation Yrotation Xrotation
			JOINT LeftLeg
			{
				OFFSET 2.448110 -6.726130 0.000000
				CHANNELS 3 Zrotation Yrotation Xrotation
				JOINT LeftFoot
				{
					OFFSET 2.562200 -7.039590 0.000000
					CHANNELS 3 Zrotation Yrotation Xrotation
					JOINT LeftToeBase
					{
						OFFSET 0.157640 -0.433110 2.322550
						CHANNELS 3 Zrotation Yrotation Xrotation
						End Site
						{
							OFFSET 0.000000 0.000000 0.000000
						}
					}
				}
			}
		}
	}
	JOINT RHipJoint
	{
		OFFSET 0.000000 0.000000 0.000000
		CHANNELS 3 Zrotation Yrotation Xrotation
		JOINT RightUpLeg
		{
			OFFSET -1.305520 -1.794630 0.839290
			CHANNELS 3 Zrotation Yrotation Xrotation
			JOINT RightLeg
			{
				OFFSET -2.542530 -6.985550 0.000000
				CHANNELS 3 Zrotation Yrotation Xrotation
				JOINT RightFoot
				{
					OFFSET -2.568260 -7.056230 0.000000
					CHANNELS 3 Zrotation Yrotation Xrotation
					JOINT RightToeBase
					{
						OFFSET -0.164730 -0.452590 2.363150
						CHANNELS 3 Zrotation Yrotation Xrotation
						End Site
						{
							OFFSET 0.000000 0.000000 0.000000
						}
					}
				}
			}
		}
	}
	JOINT LowerBack
	{
		OFFSET 0.000000 0.000000 0.000000
		CHANNELS 3 Zrotation Yrotation Xrotation
		JOINT Spine
		{
			OFFSET 0.028270 2.035590 -0.193380
			CHANNELS 3 Zrotation Yrotation Xrotation
			JOINT Spine1
			{
				OFFSET 0.056720 2.048850 -0.042750
				CHANNELS 3 Zrotation Yrotation Xrotation
				JOINT Neck
				{
					OFFSET 0.000000 0.000000 0.000000
					CHANNELS 3 Zrotation Yrotation Xrotation
					JOINT Neck1
					{
						OFFSET -0.054170 1.746240 0.172020
						CHANNELS 3 Zrotation Yrotation Xrotation
						JOINT Head
						{
							OFFSET 0.104070 1.761360 -0.123970
							CHANNELS 3 Zrotation Yrotation Xrotation
							End Site
							{
								OFFSET 0.000000 0.000000 0.000000
							}
						}
					}
				}
				JOINT LeftShoulder
				{
					OFFSET 0.000000 0.000000 0.000000
					CHANNELS 3 Zrotation Yrotation Xrotation
					JOINT LeftArm
					{
						OFFSET 3.362410 1.200890 -0.311210
						CHANNELS 3 Zrotation Yrotation Xrotation
						JOINT LeftForeArm
						{
							OFFSET 4.983000 -0.000000 -0.000000
							CHANNELS 3 Zrotation Yrotation Xrotation
							JOINT LeftHand
							{
								OFFSET 3.483560 -0.000000 -0.000000
								CHANNELS 3 Zrotation Yrotation Xrotation
								JOINT LeftFingerBase
								{
									OFFSET 0.000000 0.000000 0.000000
									CHANNELS 3 Zrotation Yrotation Xrotation
									JOINT LeftHandIndex1
									{
										OFFSET 0.715260 -0.000000 -0.000000
										CHANNELS 3 Zrotation Yrotation Xrotation
										End Site
										{
											OFFSET 0.000000 0.000000 0.000000
										}
									}
								}
								JOINT LThumb
								{
									OFFSET 0.000000 0.000000 0.000000
									CHANNELS 3 Zrotation Yrotation Xrotation
									End Site
									{
										OFFSET 0.000000 0.000000 0.000000
									}
								}
							}
						}
					}
				}
				JOINT RightShoulder
				{
					OFFSET 0.000000 0.000000 0.000000
					CHANNELS 3 Zrotation Yrotation Xrotation
					JOINT RightArm
					{
						OFFSET -3.136600 1.374050 -0.404650
						CHANNELS 3 Zrotation Yrotation Xrotation
						JOINT RightForeArm
						{
							OFFSET -5.241900 -0.000000 -0.000000
							CHANNELS 3 Zrotation Yrotation Xrotation
							JOINT RightHand
							{
								OFFSET -3.444170 -0.000000 -0.000000
								CHANNELS 3 Zrotation Yrotation Xrotation
								JOINT RightFingerBase
								{
									OFFSET 0.000000 0.000000 0.000000
									CHANNELS 3 Zrotation Yrotation Xrotation
									JOINT RightHandIndex1
									{
										OFFSET -0.622530 -0.000000 -0.000000
										CHANNELS 3 Zrotation Yrotation Xrotation
										End Site
										{
											OFFSET 0.000000 0.000000 0.000000
										}
									}
								}
								JOINT RThumb
								{
									OFFSET 0.000000 0.000000 0.000000
									CHANNELS 3 Zrotation Yrotation Xrotation
									End Site
									{
										OFFSET 0.000000 0.000000 0.000000
									}
								}
							}
						}
					}
				}
			}
		}
	}
}
MOTION
Frames: 7
Frame Time: 0.008333
-3.565856 16.765016 1.232313 -35.114978 83.993744 -15.198009 -8.597605 2.477441 3.206106 -23.670917 2.361609 -45.515194 -3.647929 0.315120 22.785756 1.638398 5.186735 -11.675818 -0.239200 -0.000000 -12.009901 10.160235 -4.627826 0.313484 9.728955 -11.445443 -5.115637 2.342856 -1.362695 23.674506 1.353019 16.678343 9.015937 3.920500 -0.000000 -72.901900 -1.458991 0.351390 -4.648314 -1.130571 0.275681 -3.658364 -6.061562 0.286327 1.106969 11.360943 -7.349529 -7.164767 -2.431624 -0.189357 0.113425 0.000000 0.000000 0.000000 1.599640 15.551496 2.207991 -54.842845 14.346874 -3.123615 -0.620490 -78.970655 -0.018957 7.691213 1.708164 0.111130 -0.202045 0.126782 0.000000 0.000000 0.000000 0.000000 0.000000 0.000000 0.000000 10.039519 -0.131587 -0.442407 55.037025 30.879607 19.311400 179.579637 82.872767 -179.990379 0.944737 5.390834 0.050583 -0.012032 -0.536078 -0.000000 0.000000 0.000000 0.000000 0.000000 0.000000 0.000000 
-3.387896 16.709221 1.229383 -34.448365 83.796208 -14.697012 -8.614096 2.452790 3.338051 -23.081927 1.437525 -45.938309 -3.387927 0.560686 25.579452 1.905269 6.071037 -13.217895 -0.497200 0.000000 -6.393600 10.335948 -4.629688 0.184766 8.916195 -12.318381 -5.783709 2.177115 -1.536371 26.091491 1.356838 18.918318 9.952467 4.746100 -0.000000 -74.370201 -1.823947 0.339532 -4.700395 -1.212370 0.288414 -3.656692 -6.112835 0.299493 1.160789 11.705459 -7.423131 -7.221756 -2.405001 -0.186604 0.097037 0.000000 0.000000 0.000000 1.545398 15.888474 2.210238 -54.927052 14.422988 -3.605879 -0.628987 -78.856610 -0.018885 7.735783 1.736913 0.113820 -0.202078 0.124622 0.000000 0.000000 0.000000 0.000000 0.000000 0.000000 0.000000 10.208647 -0.165187 -0.451569 54.938614 30.984789 19.093410 179.539508 82.216879 -179.987464 1.352705 5.364798 0.071835 -0.021716 -0.540931 -0.000000 0.000000 0.000000 0.000000 0.000000 0.000000 0.000000 
-3.214892 16.659656 1.225508 -32.429114 83.580598 -12.893070 -8.662272 2.427730 3.402653 -22.669343 0.741482 -46.239701 -3.153935 0.800562 28.299903 2.151787 6.907274 -14.693821 -0.788400 0.000000 -2.167100 10.496288 -4.601613 0.043770 7.939507 -13.172344 -6.541004 1.978208 -1.706548 28.648298 1.319441 21.215790 11.114858 5.744500 0.000000 -75.602000 -2.276361 0.341030 -4.676012 -1.309928 0.324061 -3.644536 -6.161867 0.334780 1.198371 11.987788 -7.478335 -7.276169 -2.380227 -0.183849 0.079831 0.000000 0.000000 0.000000 1.408320 16.236791 2.219261 -55.008065 14.310745 -4.057883 -0.649398 -78.581827 -0.018798 7.784170 1.769625 0.117005 -0.202096 0.122122 0.000000 0.000000 0.000000 0.000000 0.000000 0.000000 0.000000 10.323251 -0.177914 -0.472589 55.000806 31.028312 18.872602 179.506853 81.682478 -179.984501 1.767338 5.304376 0.092881 -0.032038 -0.544377 -0.000000 0.000000 0.000000 0.000000 0.000000 0.000000 0.000000 
-3.046858 16.617283 1.219903 -29.518859 83.348674 -10.236769 -8.739608 2.395694 3.401081 -22.436277 0.289395 -46.371929 -2.955841 1.015722 30.789711 2.370675 7.676116 -16.066882 178.901300 -0.000000 -0.625000 10.630681 -4.552511 -0.100499 6.862438 -13.950491 -7.363018 1.757781 -1.872052 31.274803 1.241536 23.396768 12.474045 6.897000 -0.000000 -76.487500 -2.779687 0.353033 -4.584603 -1.415523 0.376511 -3.624075 -6.207595 0.386355 1.217642 12.194725 -7.513269 -7.323286 -2.358651 -0.181298 0.063476 0.000000 0.000000 0.000000 1.185298 16.574829 2.233053 -55.102019 14.031858 -4.487132 -0.681318 -78.150786 -0.018732 7.853001 1.808654 0.120885 -0.202169 0.119237 0.000000 0.000000 0.000000 0.000000 0.000000 0.000000 0.000000 10.375815 -0.171726 -0.506743 55.217401 31.003685 18.660483 179.482612 81.273178 -179.981601 2.174990 5.205759 0.112324 -0.042654 -0.546126 -0.000000 0.000000 0.000000 0.000000 0.000000 0.000000 0.000000 
-2.883553 16.582686 1.211807 -26.183719 83.105212 -7.180393 -8.836240 2.352979 3.341045 -22.369336 0.069940 -46.307384 -2.798459 1.191610 32.934684 2.561354 8.369783 -17.329040 178.582101 0.000000 -2.136999 10.738477 -4.491877 -0.241236 5.743492 -14.622753 -8.239713 1.527851 -2.034940 33.921639 1.131377 25.291709 13.984071 8.154200 0.000000 -76.956300 -3.294500 0.371484 -4.439571 -1.521313 0.438146 -3.597549 -6.249144 0.447021 1.219486 12.318388 -7.526106 -7.359404 -2.341579 -0.179148 0.049400 0.000000 0.000000 0.000000 0.884704 16.888327 2.249132 -55.229697 13.604778 -4.895348 -0.724260 -77.566855 -0.018723 7.956635 1.856448 0.126060 -0.202343 0.116012 0.000000 0.000000 0.000000 0.000000 0.000000 0.000000 0.000000 10.364888 -0.149495 -0.555344 55.571957 30.907150 18.465858 179.467665 80.989266 -179.978862 2.564533 5.069526 0.129264 -0.053300 -0.545996 -0.000000 0.000000 0.000000 0.000000 0.000000 0.000000 0.000000 
-2.724674 16.556067 1.201211 -22.577297 82.860792 -3.871497 -8.939143 2.301417 3.234017 -22.467753 0.044186 -46.015637 -2.683313 1.318308 34.648272 2.728790 9.000845 -18.475711 178.261200 0.000000 -2.582000 10.825980 -4.423495 -0.379710 4.594137 -15.201378 -9.169268 1.296955 -2.199000 36.566422 0.999648 26.766332 15.590193 9.438000 0.000001 -77.001200 -3.815909 0.390937 -4.250333 -1.626375 0.502803 -3.566046 -6.285664 0.510818 1.206659 12.361286 -7.517220 -7.381627 -2.330471 -0.177579 0.038597 0.000000 0.000000 0.000000 0.533013 17.166988 2.265291 -55.413721 13.046821 -5.278689 -0.777492 -76.833561 -0.018810 8.105219 1.915728 0.132830 -0.202570 0.112567 0.000000 0.000000 0.000000 0.000000 0.000000 0.000000 0.000000 10.303303 -0.116718 -0.617342 56.038768 30.745415 18.295881 179.462909 80.830312 -179.976383 2.927024 4.899377 0.143002 -0.063725 -0.543983 -0.000000 0.000000 0.000000 0.000000 0.000000 0.000000 0.000000 
-2.569540 16.537356 1.186745 -19.397964 82.605034 -0.993050 -9.032199 2.244841 3.091698 -22.653969 0.193838 -45.528471 -2.604294 1.394976 35.924551 2.874088 9.557236 -19.512231 177.946800 -0.000000 -2.175400 10.903838 -4.352057 -0.505351 3.510625 -15.651182 -10.134514 1.070375 -2.363731 39.162993 0.858310 27.646776 17.231319 10.612900 0.000000 -76.670700 -4.255255 0.415491 -4.033120 -1.714195 0.566971 -3.532443 -6.317408 0.574836 1.180207 12.317886 -7.482455 -7.385549 -2.326612 -0.176812 0.032938 0.000000 0.000000 0.000000 0.125501 17.398272 2.277241 -55.666568 12.400216 -5.636820 -0.838460 -75.981685 -0.019003 8.303947 1.992534 0.141998 -0.202757 0.108841 0.000000 0.000000 0.000000 0.000000 0.000000 0.000000 0.000000 10.190315 -0.069596 -0.691001 56.575797 30.521047 18.153422 179.467850 80.791372 -179.974198 3.259073 4.702443 0.153338 -0.073818 -0.540057 -0.000000 0.000000 0.000000 0.000000 0.000000 0.000000 0.000000 
